<svg xmlns="http://www.w3.org/2000/svg" version="1.1" xmlns:xlink="http://www.w3.org/1999/xlink" xmlns:svgjs="http://svgjs.dev/svgjs" viewBox="0 0 13.445397910796162 3.1330692316669086"><g transform="matrix(1,0,0,1,2.679489552633896,0.5609533658334545)"><rect width="13.445397910796162" height="13.445397910796162" x="-2.6794895526338953" y="-5.717117705398081" fill="#ffffff"></rect><g><path d=" M 0.3165 0.6825000000000001 Q 0.3555 0.6930000000000001 0.4005 0.6997500000000001 Q 0.4455 0.7065 0.4995 0.7065 Q 0.591 0.7065 0.6615 0.681 Q 0.732 0.6555 0.77925 0.6112500000000001 Q 0.8265 0.5670000000000001 0.8505 0.5092500000000001 Q 0.8745 0.4515 0.8745 0.38550000000000006 Q 0.8745 0.3225 0.8535 0.26475000000000004 Q 0.8325 0.20700000000000007 0.7897500000000001 0.16425 Q 0.747 0.12150000000000005 0.6825 0.09600000000000009 Q 0.618 0.07050000000000001 0.531 0.07050000000000001 L 0.18 0.07050000000000001 L 0.18 1.1205 L 0.3165 1.1205 L 0.3165 0.6825000000000001 M 0.3165 0.13650000000000007 L 0.47400000000000003 0.13650000000000007 Q 0.537 0.13650000000000007 0.585 0.15900000000000003 Q 0.633 0.1815 0.6645 0.21825000000000006 Q 0.6960000000000001 0.255 0.71175 0.3007500000000001 Q 0.7275 0.34650000000000003 0.7275 0.39150000000000007 Q 0.7275 0.43500000000000005 0.71325 0.47925000000000006 Q 0.6990000000000001 0.5235000000000001 0.6675 0.5595 Q 0.636 0.5955 0.588 0.618 Q 0.54 0.6405000000000001 0.47250000000000003 0.6405000000000001 Q 0.426 0.6405000000000001 0.387 0.63675 Q 0.34800000000000003 0.633 0.3165 0.621 L 0.3165 0.13650000000000007 M 1.114464111328125 0.07050000000000001 L 1.114464111328125 1.1205 L 1.792464111328125 1.1205 L 1.792464111328125 1.038 L 1.2509641113281251 1.038 L 1.2509641113281251 0.5985 L 1.715964111328125 0.5985 L 1.715964111328125 0.5295000000000001 L 1.2509641113281251 0.5295000000000001 L 1.2509641113281251 0.15300000000000002 L 1.792464111328125 0.15300000000000002 L 1.792464111328125 0.07050000000000001 L 1.114464111328125 0.07050000000000001 M 2.42094873046875 1.1205 L 2.42094873046875 0.15300000000000002 L 2.82294873046875 0.15300000000000002 L 2.82294873046875 0.07050000000000001 L 1.88244873046875 0.07050000000000001 L 1.88244873046875 0.15300000000000002 L 2.28444873046875 0.15300000000000002 L 2.28444873046875 1.1205 L 2.42094873046875 1.1205 M 3.02093701171875 0.34650000000000003 L 2.95793701171875 0.34650000000000003 L 2.91293701171875 0 L 3.0629370117187498 0 L 3.02093701171875 0.34650000000000003 M 3.178396728515625 0.855 Q 3.181396728515625 0.9195 3.212146728515625 0.9720000000000001 Q 3.242896728515625 1.0245 3.296146728515625 1.06125 Q 3.349396728515625 1.098 3.4213967285156253 1.11825 Q 3.493396728515625 1.1385 3.578896728515625 1.1385 Q 3.665896728515625 1.1385 3.735646728515625 1.1175000000000002 Q 3.805396728515625 1.0965 3.854896728515625 1.0575 Q 3.904396728515625 1.0185 3.931396728515625 0.9630000000000001 Q 3.958396728515625 0.9075000000000001 3.958396728515625 0.8400000000000001 Q 3.958396728515625 0.7470000000000001 3.911896728515625 0.6877500000000001 Q 3.865396728515625 0.6285000000000001 3.7956467285156252 0.58875 Q 3.7258967285156253 0.549 3.644146728515625 0.522 Q 3.5623967285156253 0.495 3.4926467285156253 0.4650000000000001 Q 3.422896728515625 0.43500000000000005 3.376396728515625 0.396 Q 3.329896728515625 0.357 3.329896728515625 0.2925 Q 3.329896728515625 0.25650000000000006 3.345646728515625 0.22499999999999998 Q 3.361396728515625 0.1935 3.392146728515625 0.17025 Q 3.422896728515625 0.14700000000000002 3.4678967285156252 0.13275000000000003 Q 3.512896728515625 0.11850000000000005 3.571396728515625 0.11850000000000005 Q 3.668896728515625 0.11850000000000005 3.737146728515625 0.15975000000000006 Q 3.805396728515625 0.20100000000000007 3.817396728515625 0.2895 L 3.919396728515625 0.2895 Q 3.910396728515625 0.23399999999999999 3.878896728515625 0.18975000000000009 Q 3.847396728515625 0.14550000000000007 3.799396728515625 0.11475000000000013 Q 3.7513967285156253 0.08400000000000007 3.690646728515625 0.06824999999999992 Q 3.629896728515625 0.05249999999999999 3.563896728515625 0.05249999999999999 Q 3.494896728515625 0.05249999999999999 3.4326467285156252 0.07050000000000001 Q 3.370396728515625 0.08850000000000002 3.323146728515625 0.123 Q 3.275896728515625 0.15750000000000008 3.248146728515625 0.21000000000000008 Q 3.220396728515625 0.26250000000000007 3.220396728515625 0.33000000000000007 Q 3.220396728515625 0.4185 3.265396728515625 0.47250000000000003 Q 3.310396728515625 0.5265000000000001 3.378646728515625 0.5625 Q 3.446896728515625 0.5985 3.5263967285156252 0.6240000000000001 Q 3.605896728515625 0.6495 3.674146728515625 0.6817500000000001 Q 3.742396728515625 0.714 3.787396728515625 0.7605000000000001 Q 3.832396728515625 0.807 3.832396728515625 0.885 Q 3.832396728515625 0.9825 3.761146728515625 1.0275 Q 3.6898967285156252 1.0725 3.571396728515625 1.0725 Q 3.476896728515625 1.0725 3.419896728515625 1.04775 Q 3.362896728515625 1.0230000000000001 3.332896728515625 0.9885 Q 3.302896728515625 0.9540000000000001 3.2923967285156253 0.91725 Q 3.281896728515625 0.8805000000000001 3.2803967285156252 0.855 L 3.178396728515625 0.855 M 4.660360107421875 0.07050000000000001 L 5.099860107421875 1.1205 L 5.189860107421875 1.1205 L 5.615860107421875 0.07050000000000001 L 5.537860107421875 0.07050000000000001 L 5.188360107421875 0.9345000000000001 L 5.182360107421875 0.9345000000000001 L 4.822360107421875 0.07050000000000001 L 4.660360107421875 0.07050000000000001 M 5.731392333984376 0.855 Q 5.734392333984376 0.9195 5.765142333984375 0.9720000000000001 Q 5.7958923339843755 1.0245 5.849142333984376 1.06125 Q 5.902392333984375 1.098 5.974392333984375 1.11825 Q 6.046392333984375 1.1385 6.131892333984376 1.1385 Q 6.218892333984376 1.1385 6.2886423339843756 1.1175000000000002 Q 6.3583923339843755 1.0965 6.407892333984376 1.0575 Q 6.457392333984376 1.0185 6.484392333984376 0.9630000000000001 Q 6.511392333984375 0.9075000000000001 6.511392333984375 0.8400000000000001 Q 6.511392333984375 0.7470000000000001 6.464892333984375 0.6877500000000001 Q 6.418392333984375 0.6285000000000001 6.348642333984375 0.58875 Q 6.278892333984375 0.549 6.197142333984376 0.522 Q 6.115392333984375 0.495 6.045642333984375 0.4650000000000001 Q 5.975892333984375 0.43500000000000005 5.929392333984375 0.396 Q 5.882892333984375 0.357 5.882892333984375 0.2925 Q 5.882892333984375 0.25650000000000006 5.898642333984375 0.22499999999999998 Q 5.914392333984376 0.1935 5.945142333984375 0.17025 Q 5.975892333984375 0.14700000000000002 6.020892333984375 0.13275000000000003 Q 6.065892333984375 0.11850000000000005 6.1243923339843755 0.11850000000000005 Q 6.221892333984376 0.11850000000000005 6.290142333984376 0.15975000000000006 Q 6.3583923339843755 0.20100000000000007 6.370392333984375 0.2895 L 6.472392333984375 0.2895 Q 6.463392333984375 0.23399999999999999 6.431892333984376 0.18975000000000009 Q 6.400392333984375 0.14550000000000007 6.352392333984375 0.11475000000000013 Q 6.304392333984375 0.08400000000000007 6.243642333984376 0.06824999999999992 Q 6.182892333984375 0.05249999999999999 6.116892333984375 0.05249999999999999 Q 6.047892333984375 0.05249999999999999 5.985642333984376 0.07050000000000001 Q 5.923392333984375 0.08850000000000002 5.876142333984375 0.123 Q 5.828892333984375 0.15750000000000008 5.801142333984376 0.21000000000000008 Q 5.773392333984376 0.26250000000000007 5.773392333984376 0.33000000000000007 Q 5.773392333984376 0.4185 5.8183923339843755 0.47250000000000003 Q 5.863392333984375 0.5265000000000001 5.931642333984375 0.5625 Q 5.999892333984375 0.5985 6.079392333984376 0.6240000000000001 Q 6.158892333984375 0.6495 6.227142333984375 0.6817500000000001 Q 6.295392333984376 0.714 6.340392333984376 0.7605000000000001 Q 6.385392333984376 0.807 6.385392333984376 0.885 Q 6.385392333984376 0.9825 6.314142333984376 1.0275 Q 6.242892333984376 1.0725 6.1243923339843755 1.0725 Q 6.0298923339843755 1.0725 5.972892333984375 1.04775 Q 5.915892333984376 1.0230000000000001 5.885892333984375 0.9885 Q 5.855892333984375 0.9540000000000001 5.845392333984376 0.91725 Q 5.834892333984375 0.8805000000000001 5.833392333984375 0.855 L 5.731392333984376 0.855 M 7.196892333984375 1.1205 L 7.196892333984375 0.15300000000000002 L 7.5988923339843755 0.15300000000000002 L 7.5988923339843755 0.07050000000000001 L 6.658392333984375 0.07050000000000001 L 6.658392333984375 0.15300000000000002 L 7.0603923339843755 0.15300000000000002 L 7.0603923339843755 1.1205 L 7.196892333984375 1.1205" fill="#3c291f" fill-rule="nonzero"></path></g><g><path d=" M 0.36375 1.8866624999999997 L 0.12525 1.8866624999999997 L 0.0795 2.0111624999999997 L 0.024 2.0111624999999997 L 0.21525 1.4936624999999997 L 0.2745 1.4936624999999997 L 0.465 2.0111624999999997 L 0.40950000000000003 2.0111624999999997 L 0.36375 1.8866624999999997 M 0.34800000000000003 1.8431624999999998 L 0.2445 1.5596624999999997 L 0.14100000000000001 1.8431624999999998 L 0.34800000000000003 1.8431624999999998 M 0.608983154296875 1.9684124999999997 L 0.797233154296875 1.9684124999999997 L 0.797233154296875 2.0111624999999997 L 0.556483154296875 2.0111624999999997 L 0.556483154296875 1.4869124999999999 L 0.608983154296875 1.4869124999999999 L 0.608983154296875 1.9684124999999997 M 1.1606136474609376 1.9984124999999997 Q 1.1212386474609377 1.9804124999999997 1.0987386474609377 1.9481624999999998 Q 1.0762386474609378 1.9159124999999997 1.0747386474609377 1.8761624999999997 L 1.1302386474609376 1.8761624999999997 Q 1.1339886474609377 1.9144124999999996 1.1639886474609378 1.9432874999999998 Q 1.1939886474609378 1.9721624999999998 1.2517386474609378 1.9721624999999998 Q 1.3049886474609376 1.9721624999999998 1.3361136474609376 1.9447874999999997 Q 1.3672386474609377 1.9174124999999997 1.3672386474609377 1.8754124999999997 Q 1.3672386474609377 1.8416624999999998 1.3499886474609377 1.8210374999999996 Q 1.3327386474609377 1.8004124999999997 1.3072386474609377 1.7902874999999998 Q 1.2817386474609376 1.7801624999999996 1.2367386474609376 1.7681624999999999 Q 1.1842386474609377 1.7539124999999998 1.1534886474609376 1.7404124999999997 Q 1.1227386474609378 1.7269124999999996 1.1009886474609376 1.6984124999999997 Q 1.0792386474609377 1.6699124999999997 1.0792386474609377 1.6211624999999996 Q 1.0792386474609377 1.5806624999999999 1.1002386474609378 1.5487874999999998 Q 1.1212386474609377 1.5169124999999997 1.1594886474609376 1.4989124999999999 Q 1.1977386474609377 1.4809124999999996 1.2472386474609376 1.4809124999999996 Q 1.3199886474609377 1.4809124999999996 1.3646136474609376 1.5165374999999996 Q 1.4092386474609377 1.5521624999999997 1.4159886474609378 1.6084124999999998 L 1.3589886474609376 1.6084124999999998 Q 1.3537386474609376 1.5761624999999997 1.3237386474609376 1.5510374999999996 Q 1.2937386474609376 1.5259124999999998 1.2427386474609377 1.5259124999999998 Q 1.1954886474609376 1.5259124999999998 1.1639886474609378 1.5510374999999996 Q 1.1324886474609377 1.5761624999999997 1.1324886474609377 1.6196624999999998 Q 1.1324886474609377 1.6526624999999997 1.1497386474609377 1.6729124999999998 Q 1.1669886474609377 1.6931624999999997 1.1928636474609378 1.7036624999999996 Q 1.2187386474609376 1.7141624999999998 1.2629886474609378 1.7261624999999996 Q 1.3139886474609377 1.7404124999999997 1.3454886474609378 1.7542874999999998 Q 1.3769886474609376 1.7681624999999999 1.3987386474609376 1.7966624999999998 Q 1.4204886474609377 1.8251624999999998 1.4204886474609377 1.8731624999999998 Q 1.4204886474609377 1.9099124999999997 1.4009886474609377 1.9429124999999998 Q 1.3814886474609378 1.9759124999999997 1.3432386474609377 1.9961624999999998 Q 1.3049886474609376 2.0164125 1.2517386474609378 2.0164125 Q 1.1999886474609376 2.0164125 1.1606136474609376 1.9984124999999997 M 1.5817547607421878 1.5296624999999997 L 1.5817547607421878 1.7254124999999998 L 1.7805047607421878 1.7254124999999998 L 1.7805047607421878 1.7689124999999997 L 1.5817547607421878 1.7689124999999997 L 1.5817547607421878 1.9676624999999996 L 1.8030047607421877 1.9676624999999996 L 1.8030047607421877 2.0111624999999997 L 1.5292547607421878 2.0111624999999997 L 1.5292547607421878 1.4861624999999998 L 1.8030047607421877 1.4861624999999998 L 1.8030047607421877 1.5296624999999997 L 1.5817547607421878 1.5296624999999997 M 2.1929978027343755 2.0111624999999997 L 2.0632478027343755 1.7921624999999997 L 1.9664978027343754 1.7921624999999997 L 1.9664978027343754 2.0111624999999997 L 1.9139978027343754 2.0111624999999997 L 1.9139978027343754 1.4869124999999999 L 2.0714978027343753 1.4869124999999999 Q 2.1592478027343756 1.4869124999999999 2.2046228027343755 1.5289124999999997 Q 2.2499978027343754 1.5709124999999997 2.2499978027343754 1.6391624999999999 Q 2.2499978027343754 1.6961624999999998 2.217372802734375 1.7362874999999998 Q 2.184747802734375 1.7764124999999997 2.1209978027343754 1.7884124999999997 L 2.2559978027343752 2.0111624999999997 L 2.1929978027343755 2.0111624999999997 M 1.9664978027343754 1.7494124999999998 L 2.0722478027343754 1.7494124999999998 Q 2.1337478027343755 1.7494124999999998 2.1648728027343753 1.7194124999999998 Q 2.195997802734375 1.6894124999999998 2.195997802734375 1.6391624999999999 Q 2.195997802734375 1.5874124999999997 2.1659978027343754 1.5592874999999997 Q 2.1359978027343756 1.5311624999999998 2.0714978027343753 1.5311624999999998 L 1.9664978027343754 1.5311624999999998 L 1.9664978027343754 1.7494124999999998 M 2.7772291259765627 1.4869124999999999 L 2.5784791259765627 2.0111624999999997 L 2.5184791259765626 2.0111624999999997 L 2.3197291259765627 1.4869124999999999 L 2.376729125976563 1.4869124999999999 L 2.548479125976563 1.9541624999999998 L 2.721729125976563 1.4869124999999999 L 2.7772291259765627 1.4869124999999999 M 2.9159765625 1.4869124999999999 L 2.9159765625 2.0111624999999997 L 2.8634765625000003 2.0111624999999997 L 2.8634765625000003 1.4869124999999999 L 2.9159765625 1.4869124999999999 M 3.0524794921875 1.6102874999999996 Q 3.0862294921875 1.5491624999999998 3.1447294921875 1.5150374999999998 Q 3.2032294921875 1.4809124999999996 3.2752294921875 1.4809124999999996 Q 3.3629794921875003 1.4809124999999996 3.4256044921875 1.5225374999999997 Q 3.4882294921875 1.5641624999999997 3.5167294921875003 1.6399124999999997 L 3.4552294921875 1.6399124999999997 Q 3.4327294921875002 1.5866624999999996 3.3866044921875 1.5566624999999998 Q 3.3404794921875 1.5266624999999998 3.2752294921875 1.5266624999999998 Q 3.2174794921875 1.5266624999999998 3.1713544921875 1.5536624999999997 Q 3.1252294921875 1.5806624999999999 3.0989794921875 1.6312874999999998 Q 3.0727294921875 1.6819124999999997 3.0727294921875 1.7486624999999998 Q 3.0727294921875 1.8154124999999997 3.0989794921875 1.8656624999999998 Q 3.1252294921875 1.9159124999999997 3.1713544921875 1.9429124999999998 Q 3.2174794921875 1.9699124999999997 3.2752294921875 1.9699124999999997 Q 3.3404794921875 1.9699124999999997 3.3866044921875 1.9402874999999997 Q 3.4327294921875002 1.9106624999999997 3.4552294921875 1.8581624999999997 L 3.5167294921875003 1.8581624999999997 Q 3.4882294921875 1.9331624999999997 3.4252294921875 1.9744124999999997 Q 3.3622294921875002 2.0156625 3.2752294921875 2.0156625 Q 3.2032294921875 2.0156625 3.1447294921875 1.9815374999999997 Q 3.0862294921875 1.9474124999999998 3.0524794921875 1.8866624999999997 Q 3.0187294921875 1.8259124999999998 3.0187294921875 1.7486624999999998 Q 3.0187294921875 1.6714124999999997 3.0524794921875 1.6102874999999996 M 3.6809765624999997 1.4869124999999999 L 3.6809765624999997 2.0111624999999997 L 3.6284765625 2.0111624999999997 L 3.6284765625 1.4869124999999999 L 3.6809765624999997 1.4869124999999999 M 3.9112294921874997 1.9822874999999998 Q 3.8519794921874997 1.9481624999999998 3.8178544921874997 1.8870374999999997 Q 3.7837294921874998 1.8259124999999998 3.7837294921874998 1.7486624999999998 Q 3.7837294921874998 1.6714124999999997 3.8178544921874997 1.6102874999999996 Q 3.8519794921874997 1.5491624999999998 3.9112294921874997 1.5150374999999998 Q 3.9704794921874997 1.4809124999999996 4.0432294921875 1.4809124999999996 Q 4.1167294921875 1.4809124999999996 4.1759794921874995 1.5150374999999998 Q 4.2352294921875 1.5491624999999998 4.2689794921874995 1.6102874999999996 Q 4.3027294921875 1.6714124999999997 4.3027294921875 1.7486624999999998 Q 4.3027294921875 1.8259124999999998 4.2689794921874995 1.8870374999999997 Q 4.2352294921875 1.9481624999999998 4.1759794921874995 1.9822874999999998 Q 4.1167294921875 2.0164125 4.0432294921875 2.0164125 Q 3.9704794921874997 2.0164125 3.9112294921874997 1.9822874999999998 M 4.148229492187499 1.9436624999999998 Q 4.194729492187499 1.9166624999999997 4.2217294921874995 1.8660374999999998 Q 4.2487294921875 1.8154124999999997 4.2487294921875 1.7486624999999998 Q 4.2487294921875 1.6819124999999997 4.2217294921874995 1.6316624999999998 Q 4.194729492187499 1.5814124999999997 4.148229492187499 1.5544124999999998 Q 4.101729492187499 1.5274124999999996 4.0432294921875 1.5274124999999996 Q 3.9847294921875 1.5274124999999996 3.9382294921875 1.5544124999999998 Q 3.8917294921875 1.5814124999999997 3.8647294921874997 1.6316624999999998 Q 3.8377294921874996 1.6819124999999997 3.8377294921874996 1.7486624999999998 Q 3.8377294921874996 1.8154124999999997 3.8647294921874997 1.8660374999999998 Q 3.8917294921875 1.9166624999999997 3.9382294921875 1.9436624999999998 Q 3.9847294921875 1.9706624999999998 4.0432294921875 1.9706624999999998 Q 4.101729492187499 1.9706624999999998 4.148229492187499 1.9436624999999998 M 4.9237382812499995 1.5184124999999997 Q 4.98598828125 1.5499124999999998 5.0189882812499995 1.6091624999999996 Q 5.05198828125 1.6684124999999996 5.05198828125 1.7501624999999996 Q 5.05198828125 1.8311624999999998 5.0189882812499995 1.8900374999999998 Q 4.98598828125 1.9489124999999998 4.9237382812499995 1.9800374999999997 Q 4.86148828125 2.0111624999999997 4.77448828125 2.0111624999999997 L 4.6192382812499995 2.0111624999999997 L 4.6192382812499995 1.4869124999999999 L 4.77448828125 1.4869124999999999 Q 4.86148828125 1.4869124999999999 4.9237382812499995 1.5184124999999997 M 4.94136328125 1.9102874999999997 Q 4.99873828125 1.8529124999999997 4.99873828125 1.7501624999999996 Q 4.99873828125 1.6466624999999997 4.94136328125 1.5885374999999997 Q 4.88398828125 1.5304124999999997 4.77448828125 1.5304124999999997 L 4.67173828125 1.5304124999999997 L 4.67173828125 1.9676624999999996 L 4.77448828125 1.9676624999999996 Q 4.88398828125 1.9676624999999996 4.94136328125 1.9102874999999997 M 5.2087335205078125 1.5296624999999997 L 5.2087335205078125 1.7254124999999998 L 5.407483520507813 1.7254124999999998 L 5.407483520507813 1.7689124999999997 L 5.2087335205078125 1.7689124999999997 L 5.2087335205078125 1.9676624999999996 L 5.429983520507813 1.9676624999999996 L 5.429983520507813 2.0111624999999997 L 5.156233520507812 2.0111624999999997 L 5.156233520507812 1.4861624999999998 L 5.429983520507813 1.4861624999999998 L 5.429983520507813 1.5296624999999997 L 5.2087335205078125 1.5296624999999997 M 5.821841674804689 1.9984124999999997 Q 5.782466674804688 1.9804124999999997 5.759966674804688 1.9481624999999998 Q 5.737466674804688 1.9159124999999997 5.735966674804688 1.8761624999999997 L 5.791466674804688 1.8761624999999997 Q 5.7952166748046885 1.9144124999999996 5.825216674804688 1.9432874999999998 Q 5.855216674804688 1.9721624999999998 5.9129666748046885 1.9721624999999998 Q 5.966216674804688 1.9721624999999998 5.997341674804688 1.9447874999999997 Q 6.0284666748046885 1.9174124999999997 6.0284666748046885 1.8754124999999997 Q 6.0284666748046885 1.8416624999999998 6.011216674804688 1.8210374999999996 Q 5.993966674804688 1.8004124999999997 5.968466674804688 1.7902874999999998 Q 5.942966674804688 1.7801624999999996 5.897966674804688 1.7681624999999999 Q 5.845466674804689 1.7539124999999998 5.814716674804688 1.7404124999999997 Q 5.783966674804688 1.7269124999999996 5.762216674804688 1.6984124999999997 Q 5.740466674804688 1.6699124999999997 5.740466674804688 1.6211624999999996 Q 5.740466674804688 1.5806624999999999 5.761466674804688 1.5487874999999998 Q 5.782466674804688 1.5169124999999997 5.820716674804689 1.4989124999999999 Q 5.858966674804688 1.4809124999999996 5.908466674804688 1.4809124999999996 Q 5.981216674804688 1.4809124999999996 6.025841674804688 1.5165374999999996 Q 6.070466674804688 1.5521624999999997 6.0772166748046885 1.6084124999999998 L 6.020216674804688 1.6084124999999998 Q 6.014966674804688 1.5761624999999997 5.984966674804689 1.5510374999999996 Q 5.954966674804688 1.5259124999999998 5.903966674804688 1.5259124999999998 Q 5.856716674804688 1.5259124999999998 5.825216674804688 1.5510374999999996 Q 5.793716674804688 1.5761624999999997 5.793716674804688 1.6196624999999998 Q 5.793716674804688 1.6526624999999997 5.810966674804688 1.6729124999999998 Q 5.828216674804688 1.6931624999999997 5.854091674804688 1.7036624999999996 Q 5.879966674804688 1.7141624999999998 5.924216674804688 1.7261624999999996 Q 5.975216674804688 1.7404124999999997 6.0067166748046885 1.7542874999999998 Q 6.038216674804688 1.7681624999999999 6.059966674804688 1.7966624999999998 Q 6.081716674804688 1.8251624999999998 6.081716674804688 1.8731624999999998 Q 6.081716674804688 1.9099124999999997 6.062216674804688 1.9429124999999998 Q 6.042716674804688 1.9759124999999997 6.004466674804688 1.9961624999999998 Q 5.966216674804688 2.0164125 5.9129666748046885 2.0164125 Q 5.861216674804688 2.0164125 5.821841674804689 1.9984124999999997 M 6.240732788085938 1.4869124999999999 L 6.240732788085938 1.8169124999999997 Q 6.240732788085938 1.8949124999999998 6.277857788085939 1.9324124999999996 Q 6.314982788085938 1.9699124999999997 6.379482788085938 1.9699124999999997 Q 6.443982788085939 1.9699124999999997 6.480357788085938 1.9327874999999997 Q 6.516732788085939 1.8956624999999998 6.516732788085939 1.8169124999999997 L 6.516732788085939 1.4869124999999999 L 6.569232788085938 1.4869124999999999 L 6.569232788085938 1.8161624999999997 Q 6.569232788085938 1.9159124999999997 6.516357788085939 1.9661624999999998 Q 6.463482788085939 2.0164125 6.378732788085938 2.0164125 Q 6.2939827880859385 2.0164125 6.241107788085938 1.9661624999999998 Q 6.188232788085939 1.9159124999999997 6.188232788085939 1.8161624999999997 L 6.188232788085939 1.4869124999999999 L 6.240732788085938 1.4869124999999999 M 6.761615844726564 1.9984124999999997 Q 6.722240844726564 1.9804124999999997 6.699740844726564 1.9481624999999998 Q 6.677240844726564 1.9159124999999997 6.675740844726564 1.8761624999999997 L 6.731240844726564 1.8761624999999997 Q 6.734990844726564 1.9144124999999996 6.764990844726563 1.9432874999999998 Q 6.794990844726564 1.9721624999999998 6.852740844726564 1.9721624999999998 Q 6.905990844726563 1.9721624999999998 6.937115844726564 1.9447874999999997 Q 6.968240844726564 1.9174124999999997 6.968240844726564 1.8754124999999997 Q 6.968240844726564 1.8416624999999998 6.950990844726563 1.8210374999999996 Q 6.933740844726564 1.8004124999999997 6.9082408447265635 1.7902874999999998 Q 6.8827408447265634 1.7801624999999996 6.8377408447265635 1.7681624999999999 Q 6.785240844726564 1.7539124999999998 6.754490844726564 1.7404124999999997 Q 6.723740844726564 1.7269124999999996 6.701990844726564 1.6984124999999997 Q 6.680240844726564 1.6699124999999997 6.680240844726564 1.6211624999999996 Q 6.680240844726564 1.5806624999999999 6.701240844726564 1.5487874999999998 Q 6.722240844726564 1.5169124999999997 6.760490844726564 1.4989124999999999 Q 6.798740844726564 1.4809124999999996 6.848240844726564 1.4809124999999996 Q 6.920990844726564 1.4809124999999996 6.965615844726564 1.5165374999999996 Q 7.010240844726564 1.5521624999999997 7.016990844726564 1.6084124999999998 L 6.959990844726564 1.6084124999999998 Q 6.9547408447265635 1.5761624999999997 6.924740844726564 1.5510374999999996 Q 6.894740844726564 1.5259124999999998 6.843740844726564 1.5259124999999998 Q 6.796490844726564 1.5259124999999998 6.764990844726563 1.5510374999999996 Q 6.733490844726564 1.5761624999999997 6.733490844726564 1.6196624999999998 Q 6.733490844726564 1.6526624999999997 6.750740844726564 1.6729124999999998 Q 6.7679908447265635 1.6931624999999997 6.793865844726564 1.7036624999999996 Q 6.819740844726564 1.7141624999999998 6.863990844726564 1.7261624999999996 Q 6.914990844726564 1.7404124999999997 6.946490844726564 1.7542874999999998 Q 6.9779908447265635 1.7681624999999999 6.999740844726563 1.7966624999999998 Q 7.021490844726563 1.8251624999999998 7.021490844726563 1.8731624999999998 Q 7.021490844726563 1.9099124999999997 7.0019908447265635 1.9429124999999998 Q 6.982490844726564 1.9759124999999997 6.944240844726564 1.9961624999999998 Q 6.905990844726563 2.0164125 6.852740844726564 2.0164125 Q 6.800990844726564 2.0164125 6.761615844726564 1.9984124999999997 M 7.634247070312502 1.7464124999999997 Q 7.589997070312502 1.7876624999999997 7.501497070312502 1.7876624999999997 L 7.395747070312502 1.7876624999999997 L 7.395747070312502 2.0111624999999997 L 7.3432470703125015 2.0111624999999997 L 7.3432470703125015 1.4869124999999999 L 7.501497070312502 1.4869124999999999 Q 7.589247070312502 1.4869124999999999 7.633872070312502 1.5281624999999996 Q 7.678497070312502 1.5694124999999997 7.678497070312502 1.6376624999999998 Q 7.678497070312502 1.7051624999999997 7.634247070312502 1.7464124999999997 M 7.6244970703125015 1.6376624999999998 Q 7.6244970703125015 1.5851624999999998 7.595247070312502 1.5581624999999997 Q 7.565997070312502 1.5311624999999998 7.501497070312502 1.5311624999999998 L 7.395747070312502 1.5311624999999998 L 7.395747070312502 1.7426624999999998 L 7.501497070312502 1.7426624999999998 Q 7.6244970703125015 1.7426624999999998 7.6244970703125015 1.6376624999999998 M 8.07751647949219 1.8866624999999997 L 7.83901647949219 1.8866624999999997 L 7.79326647949219 2.0111624999999997 L 7.73776647949219 2.0111624999999997 L 7.92901647949219 1.4936624999999997 L 7.988266479492189 1.4936624999999997 L 8.17876647949219 2.0111624999999997 L 8.12326647949219 2.0111624999999997 L 8.07751647949219 1.8866624999999997 M 8.06176647949219 1.8431624999999998 L 7.95826647949219 1.5596624999999997 L 7.85476647949219 1.8431624999999998 L 8.06176647949219 1.8431624999999998 M 8.576999633789065 1.4869124999999999 L 8.576999633789065 1.5304124999999997 L 8.431499633789064 1.5304124999999997 L 8.431499633789064 2.0111624999999997 L 8.378999633789064 2.0111624999999997 L 8.378999633789064 1.5304124999999997 L 8.232749633789066 1.5304124999999997 L 8.232749633789066 1.4869124999999999 L 8.576999633789065 1.4869124999999999 M 8.720264282226566 1.4869124999999999 L 8.720264282226566 2.0111624999999997 L 8.667764282226566 2.0111624999999997 L 8.667764282226566 1.4869124999999999 L 8.720264282226566 1.4869124999999999 M 9.153767211914065 1.4869124999999999 L 9.153767211914065 1.5304124999999997 L 9.008267211914065 1.5304124999999997 L 9.008267211914065 2.0111624999999997 L 8.955767211914065 2.0111624999999997 L 8.955767211914065 1.5304124999999997 L 8.809517211914066 1.5304124999999997 L 8.809517211914066 1.4869124999999999 L 9.153767211914065 1.4869124999999999 M 9.548281860351565 1.8866624999999997 L 9.309781860351565 1.8866624999999997 L 9.264031860351565 2.0111624999999997 L 9.208531860351565 2.0111624999999997 L 9.399781860351565 1.4936624999999997 L 9.459031860351566 1.4936624999999997 L 9.649531860351566 2.0111624999999997 L 9.594031860351565 2.0111624999999997 L 9.548281860351565 1.8866624999999997 M 9.532531860351567 1.8431624999999998 L 9.429031860351566 1.5596624999999997 L 9.325531860351566 1.8431624999999998 L 9.532531860351567 1.8431624999999998 M 9.80889001464844 1.9984124999999997 Q 9.76951501464844 1.9804124999999997 9.747015014648442 1.9481624999999998 Q 9.724515014648441 1.9159124999999997 9.72301501464844 1.8761624999999997 L 9.778515014648441 1.8761624999999997 Q 9.782265014648441 1.9144124999999996 9.81226501464844 1.9432874999999998 Q 9.842265014648442 1.9721624999999998 9.90001501464844 1.9721624999999998 Q 9.95326501464844 1.9721624999999998 9.984390014648442 1.9447874999999997 Q 10.015515014648441 1.9174124999999997 10.015515014648441 1.8754124999999997 Q 10.015515014648441 1.8416624999999998 9.99826501464844 1.8210374999999996 Q 9.981015014648442 1.8004124999999997 9.95551501464844 1.7902874999999998 Q 9.930015014648442 1.7801624999999996 9.885015014648442 1.7681624999999999 Q 9.832515014648441 1.7539124999999998 9.80176501464844 1.7404124999999997 Q 9.771015014648441 1.7269124999999996 9.749265014648442 1.6984124999999997 Q 9.727515014648441 1.6699124999999997 9.727515014648441 1.6211624999999996 Q 9.727515014648441 1.5806624999999999 9.748515014648442 1.5487874999999998 Q 9.76951501464844 1.5169124999999997 9.80776501464844 1.4989124999999999 Q 9.84601501464844 1.4809124999999996 9.89551501464844 1.4809124999999996 Q 9.968265014648441 1.4809124999999996 10.012890014648441 1.5165374999999996 Q 10.057515014648441 1.5521624999999997 10.064265014648441 1.6084124999999998 L 10.007265014648441 1.6084124999999998 Q 10.00201501464844 1.5761624999999997 9.972015014648441 1.5510374999999996 Q 9.94201501464844 1.5259124999999998 9.891015014648442 1.5259124999999998 Q 9.843765014648442 1.5259124999999998 9.81226501464844 1.5510374999999996 Q 9.780765014648441 1.5761624999999997 9.780765014648441 1.6196624999999998 Q 9.780765014648441 1.6526624999999997 9.798015014648442 1.6729124999999998 Q 9.81526501464844 1.6931624999999997 9.841140014648442 1.7036624999999996 Q 9.867015014648441 1.7141624999999998 9.911265014648441 1.7261624999999996 Q 9.962265014648441 1.7404124999999997 9.99376501464844 1.7542874999999998 Q 10.025265014648442 1.7681624999999999 10.04701501464844 1.7966624999999998 Q 10.068765014648442 1.8251624999999998 10.068765014648442 1.8731624999999998 Q 10.068765014648442 1.9099124999999997 10.04926501464844 1.9429124999999998 Q 10.029765014648442 1.9759124999999997 9.99151501464844 1.9961624999999998 Q 9.95326501464844 2.0164125 9.90001501464844 2.0164125 Q 9.84826501464844 2.0164125 9.80889001464844 1.9984124999999997 M 10.159156127929691 2.0036625 Q 10.14828112792969 1.9924124999999997 10.14828112792969 1.9759124999999997 Q 10.14828112792969 1.9594124999999998 10.159156127929691 1.9485374999999998 Q 10.170031127929692 1.9376624999999998 10.186531127929692 1.9376624999999998 Q 10.202281127929691 1.9376624999999998 10.213156127929691 1.9485374999999998 Q 10.224031127929692 1.9594124999999998 10.224031127929692 1.9759124999999997 Q 10.224031127929692 1.9924124999999997 10.213156127929691 2.0036625 Q 10.202281127929691 2.0149125 10.186531127929692 2.0149125 Q 10.170031127929692 2.0149125 10.159156127929691 2.0036625" fill="#6b5536" fill-rule="nonzero"></path></g><g clip-path="url(#SvgjsClipPath1004)"><g clip-path="url(#afb0a2692-89c2-4eaf-8f38-84faaf2d01d2c05824e7-cf27-44d7-b6cb-b768a4816bfc)"><path d=" M -1.8903407739658447 1.1914838806553443 L -1.6917908396871089 0.2513387152741248 C -1.6918661199035279 0.25018987371051266 -1.6917024672591385 0.24890683697850152 -1.6909365728833972 0.24728667579904845 C -1.6039191888087792 0.06237227985081971 -1.501924314719663 -0.0038808567036984695 -1.501924314719663 -0.0038808567036984695 L -1.2139447563880126 0.07457422101647712 C -1.2139447563880126 0.07457422101647712 -1.0193584891563825 0.14879724135274858 -0.756106845391938 0.11483604458910468 L -0.7637690622022397 0.1301048363106158 C -0.7637690622022397 0.1301048363106158 -0.8066918777726355 0.25891255965645615 -0.6472156488682617 0.2711897810385331 L -0.6251519993517116 0.2700213011575941 C -0.8742084127418381 0.5707788579631522 -1.3011716158474487 0.356979770280232 -1.3011716158474487 0.356979770280232 C -1.1233073758195058 0.5532745711192848 -1.4729054278165725 0.44899837916738344 -1.1220243390874944 0.5530029077295989 C -1.0970869491354704 0.560416372520429 -1.212815553141727 0.5959453616173213 -1.212815553141727 0.5959453616173213 C -1.2680188631470872 0.6695563210635771 -1.3068241781846512 0.7985375162124699 -1.3068241781846512 0.7985375162124699 C -1.2939610803356612 0.8339159448765243 -1.261168363452956 0.9586487173770739 -1.2328597290265146 1.069376096570797 L -1.2770819465933605 1.071192640923517 C -1.2770819465933605 1.071192640923517 -1.201755907433906 1.139504527744451 -1.188814256315609 1.2042258755474864 L -1.2276424827233876 1.178336027205117 C -1.2276424827233876 1.178336027205117 -1.0334882584729448 1.404490889539421 -1.2664739821840536 1.7996334724699978 C -1.2664739821840536 1.7996334724699978 -1.370023556394867 1.8902413955625148 -1.3829684805660518 2.3432711918664344 L -2.2631382248315224 2.369157767155916 C -2.2631382248315224 2.369157767155916 -1.8748297763306376 1.1265628766261544 -1.8903407739658447 1.1914838806553443 M -1.6834281895588215 0.25729567152989113 L -1.6565760636674438 0.293102870122245 L -1.631101893041823 0.27990592087870103 C -1.642073166321674 0.2594689786473794 -1.669465345939536 0.26034942987419335 -1.6834281895588215 0.25729567152989113 M -1.4516469493104176 0.8835845224486422 C -1.454268664673532 0.8844846119927827 -1.4528252483500195 0.8848086442286732 -1.4491463369041506 0.8849068358153067 C -1.4494245463996123 0.8836041607659688 -1.4501904407753536 0.8830837453568113 -1.4516469493104176 0.8835845224486422" fill="#ca8e59" transform="matrix(1,0,0,1,0,0)" fill-rule="nonzero"></path></g><g clip-path="url(#afb0a2692-89c2-4eaf-8f38-84faaf2d01d2c05824e7-cf27-44d7-b6cb-b768a4816bfc)"><path d=" M -1.6768984490476928 0.2271279430631885 L -1.3746287418079788 0.1633132309100694 C -1.3746287418079788 0.1633132309100694 -1.512499548600092 0.5664682473099412 -2.0172566727425463 0.7041099403999096 Z" fill="#6b5536" transform="matrix(1,0,0,1,0,0)" fill-rule="nonzero"></path></g><g clip-path="url(#afb0a2692-89c2-4eaf-8f38-84faaf2d01d2c05824e7-cf27-44d7-b6cb-b768a4816bfc)"><path d=" M -1.1532459905840635 0.25259229453014587 C -1.1532459905840635 0.317163081900343 -1.1965746647125444 0.36954829336932143 -1.2500498027931548 0.36954829336932143 C -1.3035085756093263 0.36954829336932143 -1.346856888055134 0.317163081900343 -1.346856888055134 0.25259229453014587 C -1.346856888055134 0.1879691383137441 -1.3035085756093263 0.13559701905631683 -1.2500498027931548 0.13559701905631683 C -1.1965746647125444 0.13559701905631683 -1.1532459905840635 0.1879691383137441 -1.1532459905840635 0.25259229453014587" fill="#ffffff" transform="matrix(1,0,0,1,0,0)" fill-rule="nonzero"></path></g><g clip-path="url(#afb0a2692-89c2-4eaf-8f38-84faaf2d01d2c05824e7-cf27-44d7-b6cb-b768a4816bfc)"><path d=" M -1.19603461098606 0.43217816037706297 C -1.214422622109629 0.43832495370032076 -1.3350542593417858 0.6210333120021835 -1.3350542593417858 0.6210333120021835 L -1.4515716690939984 0.5842409244906067 L -1.2747188024083806 0.40022989113940616 Z" fill="#ffffff" transform="matrix(1,0,0,1,0,0)" fill-rule="nonzero"></path></g><g clip-path="url(#afb0a2692-89c2-4eaf-8f38-84faaf2d01d2c05824e7-cf27-44d7-b6cb-b768a4816bfc)"><path d=" M -1.4054478077993502 0.6084713350188696 C -1.4054478077993502 0.6491161057793678 -1.438394358167781 0.6820430178304719 -1.479055494192718 0.6820430178304719 C -1.5197035380061044 0.6820430178304719 -1.5526271770043207 0.6491161057793678 -1.5526271770043207 0.6084713350188696 C -1.5526271770043207 0.5678265642583714 -1.5197035380061044 0.5348603755726138 -1.479055494192718 0.5348603755726138 C -1.438394358167781 0.5348603755726138 -1.4054478077993502 0.5678265642583714 -1.4054478077993502 0.6084713350188696" fill="#ffffff" transform="matrix(1,0,0,1,0,0)" fill-rule="nonzero"></path></g><g clip-path="url(#afb0a2692-89c2-4eaf-8f38-84faaf2d01d2c05824e7-cf27-44d7-b6cb-b768a4816bfc)"><path d=" M -1.2919612450212252 0.6575442169654108 C -1.2919612450212252 0.7032654927548615 -1.3290449342398147 0.7403459089205633 -1.3747825752937044 0.7403459089205633 C -1.4205234894004817 0.7403459089205633 -1.4575842672488568 0.7032654927548615 -1.4575842672488568 0.6575442169654108 C -1.4575842672488568 0.61182294117596 -1.4205234894004817 0.5747228866929317 -1.3747825752937044 0.5747228866929317 C -1.3290449342398147 0.5747228866929317 -1.2919612450212252 0.61182294117596 -1.2919612450212252 0.6575442169654108" fill="#ffffff" transform="matrix(1,0,0,1,0,0)" fill-rule="nonzero"></path></g><g clip-path="url(#afb0a2692-89c2-4eaf-8f38-84faaf2d01d2c05824e7-cf27-44d7-b6cb-b768a4816bfc)"><path d=" M -1.1371163859530655 0.27678342842375503 C -1.1371163859530655 0.3190941831041352 -1.158780723017306 0.3533794121036696 -1.185518292057611 0.3533794121036696 C -1.2122591341508042 0.3533794121036696 -1.2339201981621568 0.3190941831041352 -1.2339201981621568 0.27678342842375503 C -1.2339201981621568 0.23443339710872152 -1.2122591341508042 0.20012852979186033 -1.185518292057611 0.20012852979186033 C -1.158780723017306 0.20012852979186033 -1.1371163859530655 0.23443339710872152 -1.1371163859530655 0.27678342842375503" fill="#3c291f" transform="matrix(1,0,0,1,0,0)" fill-rule="nonzero"></path></g><g clip-path="url(#afb0a2692-89c2-4eaf-8f38-84faaf2d01d2c05824e7-cf27-44d7-b6cb-b768a4816bfc)"><path d=" M -0.718640208985478 0.10692507575933144 L -0.5428641766999411 0.07428946541524 C -0.5428641766999411 0.07428946541524 -0.5015484300974473 0.1850724865080555 -0.6100926830150188 0.24586944389863802 C -0.6100926830150188 0.24586944389863802 -0.792460643816552 0.25456594542147937 -0.718640208985478 0.10692507575933144" fill="#616267" transform="matrix(1,0,0,1,0,0)" fill-rule="nonzero"></path></g><g clip-path="url(#afb0a2692-89c2-4eaf-8f38-84faaf2d01d2c05824e7-cf27-44d7-b6cb-b768a4816bfc)"><path d=" M -1.1184043425936059 0.31338597886784075 C -1.1184043425936059 0.31338597886784075 -1.3355157597989633 0.22656170491360206 -1.33986237403394 0.3785295504934001 C -1.33986237403394 0.3785295504934001 -0.9568791825814793 0.6130896126435325 -0.6251519993517118 0.2700213011575942 L -0.8057754229640561 0.33075934359619674 Z" fill="#ca8e59" transform="matrix(1,0,0,1,0,0)" fill-rule="nonzero"></path></g><g clip-path="url(#afb0a2692-89c2-4eaf-8f38-84faaf2d01d2c05824e7-cf27-44d7-b6cb-b768a4816bfc)"><path d=" M -1.2200817305526073 0.24835696409335362 C -1.2330626583055575 0.24835696409335362 -1.2435855233397821 0.23648560126936208 -1.2435855233397821 0.22183868959652991 C -1.2435855233397821 0.2071917779236978 -1.2330626583055575 0.19532041509970627 -1.2200817305526073 0.19532041509970627 C -1.207100802799657 0.19532041509970627 -1.1965779377654324 0.2071917779236978 -1.1965779377654324 0.22183868959652991 C -1.1965779377654324 0.23648560126936208 -1.207100802799657 0.24835696409335362 -1.2200817305526073 0.24835696409335362" fill="#ffffff" transform="matrix(1,0,0,1,0,0)" fill-rule="nonzero"></path></g><g clip-path="url(#afb0a2692-89c2-4eaf-8f38-84faaf2d01d2c05824e7-cf27-44d7-b6cb-b768a4816bfc)"><path d=" M -1.1949119538455504 0.2771434642414115 C -1.2014024177220253 0.2771434642414115 -1.2066654867655817 0.2712061463029718 -1.2066654867655817 0.26388432699299963 C -1.2066654867655817 0.25656250768302746 -1.2014024177220253 0.2506251897445878 -1.1949119538455504 0.2506251897445878 C -1.1884214899690753 0.2506251897445878 -1.183158420925519 0.25656250768302746 -1.183158420925519 0.26388432699299963 C -1.183158420925519 0.2712061463029718 -1.1884214899690753 0.2771434642414115 -1.1949119538455504 0.2771434642414115" fill="#ffffff" transform="matrix(1,0,0,1,0,0)" fill-rule="nonzero"></path></g><g clip-path="url(#afb0a2692-89c2-4eaf-8f38-84faaf2d01d2c05824e7-cf27-44d7-b6cb-b768a4816bfc)"><path d=" M -1.349943376928314 0.6079869231914775 C -1.3517010063290538 0.6053488425639239 -1.2918008654297242 0.644857863972361 -1.327254574310197 0.7001626386172426 C -1.327254574310197 0.7001626386172426 -1.3485261450279036 0.7341991155973054 -1.4052481515731956 0.7143447767800094 C -1.4052481515731956 0.7143447767800094 -1.3407657366309684 0.7228547142882471 -1.3382651242247017 0.663291697836359 C -1.3382651242247017 0.663291697836359 -1.3329267749647262 0.6335134626633027 -1.349943376928314 0.6079869231914775" fill="#a9a8ad" transform="matrix(1,0,0,1,0,0)" fill-rule="nonzero"></path></g><g clip-path="url(#afb0a2692-89c2-4eaf-8f38-84faaf2d01d2c05824e7-cf27-44d7-b6cb-b768a4816bfc)"><path d=" M -1.7712802021198242 1.5666477487588895 C -1.7712802021198242 1.5666477487588895 -1.2276457557762752 1.747860321891035 -1.7065621273696767 2.3173813435240653 C -1.7065621273696767 2.3173813435240653 -1.3829684805660518 1.838464971930664 -1.7712802021198242 1.5666477487588895" fill="#ffffff" transform="matrix(1,0,0,1,0,0)" fill-rule="nonzero"></path></g><g clip-path="url(#afb0a2692-89c2-4eaf-8f38-84faaf2d01d2c05824e7-cf27-44d7-b6cb-b768a4816bfc)"><path d=" M -1.2280745257045749 1.5019787698020588 C -1.230663510538812 1.4979594608558604 -1.1733883580554845 1.7405810522686043 -1.2173945541317366 1.998798740691637 C -1.2173945541317366 1.998798740691637 -1.2384304650415228 2.1291251605774093 -1.2125406166991535 2.2965058122057807 C -1.2125406166991535 2.2965058122057807 -1.4066981140024837 2.2979034057888645 -1.4066981140024837 2.2938840968426657 C -1.4066981140024837 2.2898615148435795 -1.3756335690445285 1.6197530318631803 -1.3730445842102914 1.6197530318631803 C -1.3704555993760545 1.6197530318631803 -1.225485540870338 1.5059980787482572 -1.2280745257045749 1.5019787698020588" fill="#ca8e59" transform="matrix(1,0,0,1,0,0)" fill-rule="nonzero"></path></g><g clip-path="url(#afb0a2692-89c2-4eaf-8f38-84faaf2d01d2c05824e7-cf27-44d7-b6cb-b768a4816bfc)"><path d=" M -2.0866519400693364 1.452882976485303 C -2.0182222233444422 1.3922954944795385 -1.8987623390461121 1.4023241285277082 -1.8196690160128188 1.4180380554419576 C -1.8319265990775688 1.3107506548332952 -1.8460203648123654 1.1704839733273238 -1.8460203648123654 1.1704839733273238 L -1.6996821701995555 1.294558862197429 C -1.6333733917459452 1.2741873810238633 -1.490907218699383 1.2686133719559676 -1.490907218699383 1.2686133719559676 L -1.4332654842926242 1.1218202229917555 C -1.4056049143379639 1.156092359779739 -1.3782749227249698 1.244438603326797 -1.356191634891093 1.3334132730283095 C -1.32636430392472 1.2959040869343081 -1.2790981471722354 1.2516949615790136 -1.2217738988955915 1.2524935864836328 C -1.217502171279974 1.2525742114215312 -1.2140939855631414 1.2560831964587502 -1.214137866508392 1.2603554595200892 C -1.214167165218974 1.2624108190409589 -1.2150120880956832 1.2643702807676995 -1.2164866188304266 1.2658024540417028 C -1.2179611495651697 1.2672346273157062 -1.2199443990419123 1.2680220956891333 -1.221999739544848 1.2679914919072888 C -1.2773601560888221 1.2672223244786596 -1.3242302734418852 1.3163246639011907 -1.351439162098031 1.3529075760279494 C -1.3487716239944874 1.3640359558464141 -1.3462088235833525 1.3750759632369087 -1.3437278494944125 1.385998140723443 L -1.248367453608834 1.3189823828460712 C -1.2448677784084385 1.316676755429885 -1.2401694100983867 1.3175691804267355 -1.2377588462309062 1.3209974199357735 C -1.2353482823634256 1.3244256594448114 -1.2360979991488625 1.329148901116962 -1.239451657542511 1.3316621897333454 L -1.340055484154319 1.4023601321094736 C -1.3202960638707688 1.4914722700322731 -1.3283150434458388 1.6101858982721884 -1.3283150434458388 1.6101858982721884 L -1.3093313366966934 1.848817638214724 C -1.3041533670282197 1.9549561972597742 -1.3026346704882878 1.9927141353732474 -1.3041533670282197 1.929069621970293 C -1.2808557765729751 2.0999262557654905 -1.393586264134022 2.0431453342682184 -1.3119203215309305 2.4675260986453678 C -1.3119203215309305 2.4675260986453678 -1.383734374941793 2.4398000676329517 -1.5358004121082245 2.5372290329436096 L -1.6852840105461948 2.3992829459350773 C -2.2568114135994364 2.547778082400937 -2.0523012500120466 2.231951390100023 -1.9193694800275984 1.987922385945532 C -1.8445933137532915 1.8850470606296017 -1.816451605024127 1.8037771574259323 -1.8202647116383952 1.7483709181415292 L -1.8107237624705057 1.4922938063071067 L -1.8118333273994642 1.4837118616353382 C -1.8376937182658435 1.487325312023451 -1.8750261595039046 1.4982147589811077 -1.9207310700289164 1.5275216745383229 C -1.9224086999674919 1.5285982406565677 -1.9244373267144583 1.528985204140093 -1.9263934515247823 1.5286017819912918 C -1.9295001649542092 1.5279932370852198 -1.931924939889326 1.525557170354446 -1.9325190444375504 1.5224476631553763 C -1.9331131489857747 1.5193381559563064 -1.931757257306731 1.5161797525055967 -1.9290937201572038 1.5144687396218415 C -1.8812220486204794 1.4837805957459815 -1.8416802966831642 1.4721416196770225 -1.8137546094445935 1.468256505899223 C -1.815034373123717 1.4577401869707742 -1.8163861439663718 1.446435062296369 -1.8177673722850163 1.4345440611550508 C -1.8939771357241724 1.419042882678507 -2.0120492455980825 1.4075348287250598 -2.0763745540016956 1.4644892220253842 C -2.0781818925611186 1.4660882784437834 -2.0806311432377953 1.4667538356928802 -2.0829992130465698 1.4662894011136651 C -2.0858907763350962 1.4657210411336554 -2.088210221855533 1.4635626874845622 -2.0889848955276484 1.460719440745329 C -2.0897595691997637 1.4578761940060958 -2.0888555514700786 1.4548395725378769 -2.0866519400693364 1.452882976485303" fill="#ffffff" transform="matrix(1,0,0,1,0,0)" fill-rule="nonzero"></path></g><g clip-path="url(#afb0a2692-89c2-4eaf-8f38-84faaf2d01d2c05824e7-cf27-44d7-b6cb-b768a4816bfc)"><path d=" M -1.700232043084703 1.2922415407528782 L -1.8477910864246563 1.1653943760868202 L -1.8115485717982274 1.5045186588429789 C -1.8115485717982274 1.5045186588429789 -1.4957218794973128 1.3155391312081228 -1.700232043084703 1.2922415407528782" fill="#a9a8ad" transform="matrix(1,0,0,1,0,0)" fill-rule="nonzero"></path></g><g clip-path="url(#afb0a2692-89c2-4eaf-8f38-84faaf2d01d2c05824e7-cf27-44d7-b6cb-b768a4816bfc)"><path d=" M -1.623145101471621 1.465687159382313 C -1.680482441959816 1.4778760083364197 -1.7833348559055318 1.4705247315504577 -1.7913603815863772 1.4327667934369845 C -1.799385907267223 1.3950088553235116 -1.7594088392958327 1.3545179180487392 -1.7020714988076375 1.3423323421475204 C -1.6447341583194424 1.3301434931934137 -1.6124749490574461 1.365796858300042 -1.6044494233766002 1.4035580694664027 C -1.5964238976957548 1.4413160075798757 -1.5658077609834256 1.4534983104282067 -1.623145101471621 1.465687159382313" fill="#616267" transform="matrix(1,0,0,1,0,0)" fill-rule="nonzero"></path></g><g clip-path="url(#afb0a2692-89c2-4eaf-8f38-84faaf2d01d2c05824e7-cf27-44d7-b6cb-b768a4816bfc)"><path d=" M -1.5300922078719297 1.5807513336523495 C -1.5918448967057452 1.5927536185918525 -1.648537445775047 1.5683530093134248 -1.6567233510473942 1.5262484569649752 C -1.6649059832668534 1.4841471776694133 -1.6299628706368745 1.427009493407373 -1.568210181803059 1.4150072084678698 C -1.5064574929692436 1.4030016504754792 -1.441284463867694 1.4406777622667575 -1.433098558595347 1.482782314615207 C -1.4249159263758877 1.524886866963657 -1.4683395190381143 1.5687490487128466 -1.5300922078719297 1.5807513336523495" fill="#a9a8ad" transform="matrix(1,0,0,1,0,0)" fill-rule="nonzero"></path></g><g clip-path="url(#SvgjsClipPath1001c05824e7-cf27-44d7-b6cb-b768a4816bfc)"><path d=" M -1.5812943814407485 1.4656823999260185 L -1.5295179578088978 1.452737475754834 L -1.5450518668143194 1.4915689752154997 Z" fill="#fbc4e5" transform="matrix(1,0,0,1,0,0)" fill-rule="nonzero"></path></g><g clip-path="url(#bfb0a2692-89c2-4eaf-8f38-84faaf2d01d2c05824e7-cf27-44d7-b6cb-b768a4816bfc)"><path d=" M -1.6873034841779573 1.4501532503768915 C -1.71516698341166 1.4511253470845635 -1.738320559539842 1.4356994488244388 -1.7390177198049401 1.4156945495743045 C -1.739714880070038 1.3956896503241705 -1.7176970532939169 1.378686140572134 -1.6898335540602143 1.3777140438644622 C -1.6619700548265115 1.3767386741039027 -1.6388164786983292 1.3921678454169153 -1.6381193184332314 1.4121727446670493 C -1.6374188851152458 1.4321743708642958 -1.6594399849442545 1.4491811536692196 -1.6873034841779573 1.4501532503768915" fill="#ffffff" transform="matrix(1,0,0,1,0,0)" fill-rule="nonzero"></path></g><g clip-path="url(#bfb0a2692-89c2-4eaf-8f38-84faaf2d01d2c05824e7-cf27-44d7-b6cb-b768a4816bfc)"><path d=" M -1.495738244761752 1.4087327660819884 C -1.5236017439954548 1.4097048627896602 -1.5467553201236366 1.3942789645295355 -1.5474524803887346 1.3742740652794012 C -1.5481496406538326 1.3542691660292672 -1.5261318138777114 1.337265656277231 -1.4982683146440086 1.336293559569559 C -1.4704048154103058 1.3353181898089996 -1.4472512392821237 1.350747361122012 -1.4465540790170257 1.370752260372146 C -1.44585364569904 1.3907538865693925 -1.4678747455280492 1.4077606693743165 -1.495738244761752 1.4087327660819884" fill="#616267" transform="matrix(1,0,0,1,0,0)" fill-rule="nonzero"></path></g><g clip-path="url(#bfb0a2692-89c2-4eaf-8f38-84faaf2d01d2c05824e7-cf27-44d7-b6cb-b768a4816bfc)"><path d=" M -1.49831086433155 1.3931628534948015 C -1.5140378834573505 1.3931628534948015 -1.5267864244552682 1.3844696250248478 -1.5267864244552682 1.3737471037644686 C -1.5267864244552682 1.363024582504089 -1.5140378834573505 1.3543313540341353 -1.49831086433155 1.3543313540341353 C -1.482583845205749 1.3543313540341353 -1.4698353042078316 1.363024582504089 -1.4698353042078316 1.3737471037644686 C -1.4698353042078316 1.3844696250248478 -1.482583845205749 1.3931628534948015 -1.49831086433155 1.3931628534948015" fill="#ffffff" transform="matrix(1,0,0,1,0,0)" fill-rule="nonzero"></path></g><g clip-path="url(#bfb0a2692-89c2-4eaf-8f38-84faaf2d01d2c05824e7-cf27-44d7-b6cb-b768a4816bfc)"><path d=" M -1.4335927895814025 1.4190887054189363 C -1.4335927895814025 1.4200968057083738 -1.4750132738763053 1.6028902633853186 -1.6924683616348801 1.501929674008742" fill="none" transform="matrix(1,0,0,1,0,0)" fill-rule="nonzero" stroke-dasharray="none" stroke-miterlimit="4" stroke-linejoin="miter" stroke-linecap="round" stroke-width="0.00898780322985409" stroke="#616267"></path></g><g clip-path="url(#bfb0a2692-89c2-4eaf-8f38-84faaf2d01d2c05824e7-cf27-44d7-b6cb-b768a4816bfc)"><path d=" M -1.6691674981267477 1.4164997205846994 C -1.68632484136451 1.4164997205846994 -1.700232043084703 1.4089651528370213 -1.700232043084703 1.3996729556886034 C -1.700232043084703 1.3903807585401853 -1.68632484136451 1.3828461907925074 -1.6691674981267477 1.3828461907925074 C -1.6520101548889854 1.3828461907925074 -1.6381029531687925 1.3903807585401853 -1.6381029531687925 1.3996729556886034 C -1.6381029531687925 1.4089651528370213 -1.6520101548889854 1.4164997205846994 -1.6691674981267477 1.4164997205846994" fill="#616267" transform="matrix(1,0,0,1,0,0)" fill-rule="nonzero"></path></g><g clip-path="url(#bfb0a2692-89c2-4eaf-8f38-84faaf2d01d2c05824e7-cf27-44d7-b6cb-b768a4816bfc)"><path d=" M -1.4864034979257927 1.3802572059582703 C -1.50012740868427 1.3802572059582703 -1.5112557885027345 1.3742315155918603 -1.5112557885027345 1.366795139430816 C -1.5112557885027345 1.359362036322659 -1.50012740868427 1.3533330729033612 -1.4864034979257927 1.3533330729033612 C -1.4726795871673155 1.3533330729033612 -1.461551207348851 1.359362036322659 -1.461551207348851 1.366795139430816 C -1.461551207348851 1.3742315155918603 -1.4726795871673155 1.3802572059582703 -1.4864034979257927 1.3802572059582703" fill="#616267" transform="matrix(1,0,0,1,0,0)" fill-rule="nonzero"></path></g><g clip-path="url(#bfb0a2692-89c2-4eaf-8f38-84faaf2d01d2c05824e7-cf27-44d7-b6cb-b768a4816bfc)"><path d=" M -1.8503800712588934 1.962723151762485 C -1.8520231438085606 1.962906442724201 -1.529375409289505 1.9428033518874335 -1.689879376800643 2.2711789289601105 L -1.645869907671503 2.2711789289601105 C -1.645869907671503 2.2711789289601105 -1.5017999387099272 1.923891652301819 -1.8503800712588934 1.962723151762485" fill="#a9a8ad" transform="matrix(1,0,0,1,0,0)" fill-rule="nonzero"></path></g><g clip-path="url(#bfb0a2692-89c2-4eaf-8f38-84faaf2d01d2c05824e7-cf27-44d7-b6cb-b768a4816bfc)"><path d=" M -1.3602273091017303 1.8255200477594795 C -1.3603647773230172 1.8229343359781303 -1.324865245702115 1.9394255613072406 -1.3714636996654919 2.004143636057388 L -1.3947612901207362 1.9782570607679066 C -1.3947612901207362 1.9782570607679066 -1.39993925978921 2.03837322315783 -1.5086668036684974 2.041967035228617 C -1.5086668036684974 2.041967035228617 -1.3869943356180254 2.0248522416783956 -1.4128841839603947 1.9161246977991084 C -1.4128841839603947 1.9161246977991084 -1.3714636996654919 1.9643760434708157 -1.3714636996654919 1.9627231517624855 C -1.3714636996654919 1.9610702600541543 -1.3559297906600702 1.9057720315150484 -1.3602273091017303 1.8255200477594795" fill="#a9a8ad" transform="matrix(1,0,0,1,0,0)" fill-rule="nonzero"></path></g><g clip-path="url(#bfb0a2692-89c2-4eaf-8f38-84faaf2d01d2c05824e7-cf27-44d7-b6cb-b768a4816bfc)"><path d=" M -1.420647865410218 2.0067326208916247 C -1.4258258350786917 2.0067326208916247 -1.3921723052864996 2.3225593131925395 -1.3921723052864996 2.3225593131925395 C -1.3921723052864996 2.3225593131925395 -1.402528244623447 2.312203373855592 -1.4051139564047963 2.3173813435240653 C -1.4077029412390332 2.3225593131925395 -1.4387674861969884 2.0274412265126323 -1.4387674861969884 2.0274412265126323 Z" fill="#a9a8ad" transform="matrix(1,0,0,1,0,0)" fill-rule="nonzero"></path></g><g clip-path="url(#bfb0a2692-89c2-4eaf-8f38-84faaf2d01d2c05824e7-cf27-44d7-b6cb-b768a4816bfc)"><path d=" M -1.4646573345393579 1.273434578859673 C -1.4613482780698084 1.273434578859673 -1.4284148199129285 1.1602131333654586 -1.4284148199129285 1.1602131333654586 L -1.3921723052864996 1.2818823283630427 Z" fill="#fbc4e5" transform="matrix(1,0,0,1,0,0)" fill-rule="nonzero"></path></g><g clip-path="url(#bfb0a2692-89c2-4eaf-8f38-84faaf2d01d2c05824e7-cf27-44d7-b6cb-b768a4816bfc)"><path d=" M -1.7364745577111322 1.302597480089826 C -1.739063542545369 1.302597480089826 -1.8253903124606647 1.222345496334257 -1.8253903124606647 1.222345496334257 L -1.8115485717982274 1.333662025047781 C -1.8115485717982274 1.333662025047781 -1.7235296335399475 1.302597480089826 -1.7364745577111322 1.302597480089826" fill="#fbc4e5" transform="matrix(1,0,0,1,0,0)" fill-rule="nonzero"></path></g><g clip-path="url(#bfb0a2692-89c2-4eaf-8f38-84faaf2d01d2c05824e7-cf27-44d7-b6cb-b768a4816bfc)"><path d=" M -1.816726541466701 1.6287768386748 C -1.816726541466701 1.6287768386748 -1.663989528458274 1.6662402020283724 -1.7157659520901245 1.7588250490651103 C -1.7157659520901245 1.7588250490651103 -1.739063542545369 1.8358759870964267 -1.8296714656378859 1.8358759870964267 L -1.8400241319219457 1.8462319264333749 L -1.8253903124606645 1.786688548298813 C -1.8253903124606645 1.786688548298813 -1.816726541466701 1.6313658235090367 -1.816726541466701 1.6287768386748" fill="#a9a8ad" transform="matrix(1,0,0,1,0,0)" fill-rule="nonzero"></path></g><g clip-path="url(#bfb0a2692-89c2-4eaf-8f38-84faaf2d01d2c05824e7-cf27-44d7-b6cb-b768a4816bfc)"><path d=" M -1.4335927895814025 2.0533310748550013 C -1.4359068379730653 2.052172414132726 -1.5241974396210312 2.1109662631559853 -1.4232368502444548 2.177589254686823 C -1.4232368502444548 2.177589254686823 -1.4284148199129285 2.055920059689239 -1.4335927895814025 2.0533310748550013" fill="#a9a8ad" transform="matrix(1,0,0,1,0,0)" fill-rule="nonzero"></path></g><g clip-path="url(#bfb0a2692-89c2-4eaf-8f38-84faaf2d01d2c05824e7-cf27-44d7-b6cb-b768a4816bfc)"><path d=" M -1.3196872760336413 1.680595811994192 C -1.3196872760336413 1.680595811994192 -1.405117229457684 1.717414383928871 -1.374049411446841 1.7507798850669383 C -1.3429848664888855 1.7841453862050054 -1.4128809109075071 1.7712004620338209 -1.402528244623447 1.794501325541953 C -1.3921723052864994 1.817798915997198 -1.3895833204522625 1.9135815357053005 -1.3119203215309305 1.8618083851263376 L -1.3119203215309305 1.7912282726541695 C -1.3119203215309305 1.7912282726541695 -1.3170982911994042 1.678006827159955 -1.3196872760336413 1.680595811994192" fill="#a9a8ad" transform="matrix(1,0,0,1,0,0)" fill-rule="nonzero"></path></g></g></g><defs><clipPath id="SvgjsClipPath1004"><path d=" M -2.1676174493544424 -0.04908126255400114 h 1.7676174493544425 v 2.109325025108002 h -1.7676174493544425 Z"></path></clipPath><clipPath id="afb0a2692-89c2-4eaf-8f38-84faaf2d01d2c05824e7-cf27-44d7-b6cb-b768a4816bfc"><path d=" M -2.1676174493544424 2.060243762554001 L -0.40000523730684545 2.060243762554001 L -0.40000523730684545 -0.04907517097821632 L -2.1676174493544424 -0.04907517097821632 Z"></path></clipPath><clipPath id="SvgjsClipPath1001c05824e7-cf27-44d7-b6cb-b768a4816bfc"><path d=" M -2.1676174493544424 -0.04908126255400114 L -0.3999999999999999 -0.04908126255400114 L -0.3999999999999999 2.060243762554001 L -2.1676174493544424 2.060243762554001 Z"></path></clipPath><clipPath id="bfb0a2692-89c2-4eaf-8f38-84faaf2d01d2c05824e7-cf27-44d7-b6cb-b768a4816bfc"><path d=" M -2.1676174493544424 2.060243762554001 L -0.40000523730684545 2.060243762554001 L -0.40000523730684545 -0.04907517097821632 L -2.1676174493544424 -0.04907517097821632 Z"></path></clipPath></defs></svg>